<svg id="Ebene_1" data-name="Ebene 1" xmlns="http://www.w3.org/2000/svg" viewBox="0 0 336.03 181.77"><defs><style>.cls-1{fill:#1d1d1b;}.cls-2{fill:#75b72a;}</style></defs><title>pix-logo-vektor-v9</title><path class="cls-1" d="M80,238.93a24.68,24.68,0,0,0,11.16,2.61c6.41,0,10.15-2.79,10.15-6.82,0-3.68-2.59-5.87-9.14-7.89-7.92-2.37-12.81-5.81-12.81-11.39,0-6.23,6.26-10.85,15.69-10.85a25.55,25.55,0,0,1,10.65,2L104,210.75a21,21,0,0,0-9.14-1.9c-6.62,0-9.14,3.26-9.14,6,0,3.74,3,5.58,9.64,7.71,8.2,2.61,12.31,5.87,12.31,11.74,0,6.17-5.47,11.57-16.91,11.57-4.68,0-9.79-1.19-12.38-2.61Z" transform="translate(-7.34 -64.09)"/><path class="cls-1" d="M120.44,230.92c0,6.29,4.32,11,10.51,11s10.58-4.69,10.58-11.15c0-4.86-3-11-10.44-11s-10.65,5.69-10.65,11.09m27.57-.3c0,10.62-9,15.24-17.35,15.24-9.36,0-16.7-5.69-16.7-14.77,0-9.55,7.7-15.18,17.27-15.18,10,0,16.77,6,16.77,14.71" transform="translate(-7.34 -64.09)"/><path class="cls-1" d="M156.64,245.21V220.48h-4.82v-4h4.82v-1.36c0-4,1.15-7.71,4-10a13.69,13.69,0,0,1,8.49-2.67,17.09,17.09,0,0,1,5.4.83l-0.86,4a10.9,10.9,0,0,0-4-.65c-5.4,0-6.77,3.85-6.77,8.3v1.54h8.42v4H162.9v24.73h-6.26Z" transform="translate(-7.34 -64.09)"/><path class="cls-1" d="M185.42,209.63v6.88h9.07v4h-9.07V236c0,3.56,1.22,5.58,4.75,5.58a14.21,14.21,0,0,0,3.67-.36l0.29,4a20.66,20.66,0,0,1-5.61.71,10.12,10.12,0,0,1-6.84-2.19c-1.73-1.6-2.45-4.15-2.45-7.53V220.48h-5.4v-4h5.4v-5.34Z" transform="translate(-7.34 -64.09)"/><path class="cls-1" d="M204.78,216.51l4.68,14.59c0.94,3.2,1.87,6.17,2.52,9.13h0.22c0.79-2.91,1.94-6,3.09-9.07L221,216.51h5.33l5.4,14.35c1.3,3.44,2.3,6.46,3.09,9.37H235a73.77,73.77,0,0,1,2.66-9.31l5-14.41h6.26l-11.23,28.7h-5.76l-5.33-13.7a82.81,82.81,0,0,1-3.09-9.43h-0.14a73.61,73.61,0,0,1-3.17,9.49l-5.61,13.64h-5.76l-10.51-28.7h6.48Z" transform="translate(-7.34 -64.09)"/><path class="cls-1" d="M273.3,230.56c-6.91-.12-14.75.89-14.75,6.46,0,3.44,2.73,5,5.9,5,4.61,0,7.56-2.37,8.56-4.8a4.93,4.93,0,0,0,.29-1.66v-5Zm6.12,7.77a39.82,39.82,0,0,0,.5,6.88h-5.69l-0.5-3.62h-0.22c-1.94,2.25-5.69,4.27-10.65,4.27-7.05,0-10.65-4.09-10.65-8.24,0-6.94,7.49-10.73,20.94-10.68v-0.59c0-2.31-.79-6.64-7.92-6.58a19.51,19.51,0,0,0-9.14,2.14l-1.44-3.5a26.35,26.35,0,0,1,11.52-2.49c10.65,0,13.24,6,13.24,11.68v10.73Z" transform="translate(-7.34 -64.09)"/><path class="cls-1" d="M289.63,225.46c0-3.38-.07-6.29-0.29-9h5.54l0.29,5.69h0.22a10.41,10.41,0,0,1,9.72-6.29,15.52,15.52,0,0,1,1.73.12V221a11.91,11.91,0,0,0-2.16-.12,8.3,8.3,0,0,0-8.49,6.64,13,13,0,0,0-.22,2.43v15.3h-6.33V225.46Z" transform="translate(-7.34 -64.09)"/><path class="cls-1" d="M334.54,228.07c0.07-3.26-1.66-8.42-8.78-8.42a9.44,9.44,0,0,0-9.72,8.42h18.5ZM316,231.81c0.14,7.06,5.54,10,11.95,10a26.9,26.9,0,0,0,9.64-1.48l1.15,3.74a33.65,33.65,0,0,1-11.66,1.84c-10.72,0-17.13-5.87-17.13-14.53s6.19-15.42,16.34-15.42c11.44,0,14.4,8.18,14.4,13.46a10.55,10.55,0,0,1-.22,2.43H316Z" transform="translate(-7.34 -64.09)"/><path class="cls-2" d="M192.18,85.32a16.42,16.42,0,1,1-16.42-16.18,16.3,16.3,0,0,1,16.42,16.18" transform="translate(-7.34 -64.09)"/><path class="cls-1" d="M188.23,85.13a16.49,16.49,0,1,1-16.49-16.25,16.37,16.37,0,0,1,16.49,16.25" transform="translate(-7.34 -64.09)"/><path class="cls-2" d="M159.34,108.39h32.84V198.1H159.34V108.39Z" transform="translate(-7.34 -64.09)"/><path class="cls-1" d="M155.34,108.39h32.84V198.1H155.34V108.39Z" transform="translate(-7.34 -64.09)"/><path class="cls-2" d="M253.15,68.09l15.48,24.55c4.27,6.94,8,13.35,11.75,20h0.53c3.74-7.21,7.47-13.88,11.48-20.56l14.41-24h35.77l-43.51,62.46,44.31,67.54H306l-15.74-25.9c-4.27-6.93-8-13.87-11.75-21.09H278c-3.73,7.48-7.74,13.89-11.75,21.09l-15,25.9H215l45.12-66.2-43.52-63.8h36.58Z" transform="translate(-7.34 -64.09)"/><path class="cls-1" d="M247.76,68.09l15.48,24.55c4.27,6.94,8,13.35,11.75,20h0.53c3.74-7.21,7.47-13.88,11.48-20.56l14.41-24h35.77l-43.51,62.46L338,198.09H300.61l-15.74-25.9c-4.27-6.93-8-13.87-11.75-21.09h-0.53c-3.73,7.48-7.74,13.89-11.75,21.09l-15,25.9h-36.3l45.12-66.2-43.52-63.8h36.58Z" transform="translate(-7.34 -64.09)"/><path class="cls-2" d="M12.54,67.82c12-2.13,28.29-3.73,50.19-3.73,24,0,41.38,5.07,52.85,14.68,10.68,8.81,17.62,23,17.62,39.78,0,17.09-5.34,31-15.21,40.57C104.64,172.2,84.35,178.6,61.13,178.6c-6.14,0-11.47-.26-16-1.32v68.07H12.54V67.82Zm32.57,83.55c4.27,1.34,9.34,1.61,16,1.61,24.56,0,39.51-12.28,39.51-33.1,0-20-13.88-30.43-36.58-30.43-9.07,0-15.48.8-18.95,1.6v60.33Z" transform="translate(-7.34 -64.09)"/><path class="cls-1" d="M7.34,67.82c12-2.13,28.29-3.73,50.19-3.73,24,0,41.38,5.07,52.85,14.68,10.68,8.81,17.62,23,17.62,39.78,0,17.09-5.34,31-15.21,40.57C99.44,172.2,79.15,178.6,55.93,178.6c-6.14,0-11.47-.26-16-1.32v68.07H7.34V67.82Zm32.57,83.55c4.27,1.34,9.34,1.61,16,1.61,24.56,0,39.51-12.28,39.51-33.1,0-20-13.88-30.43-36.58-30.43-9.07,0-15.48.8-18.95,1.6v60.33Z" transform="translate(-7.34 -64.09)"/></svg>